<?xml version="1.0" standalone="no"?>
<!DOCTYPE svg PUBLIC "-//W3C//DTD SVG 1.1//EN" "http://www.w3.org/Graphics/SVG/1.1/DTD/svg11.dtd" >
<svg xmlns="http://www.w3.org/2000/svg">
<metadata>Generated by IcoMoon</metadata>
<defs>
<font id="icomoon" horiz-adv-x="1024">
<font-face units-per-em="1024" ascent="960" descent="-64" />
<missing-glyph horiz-adv-x="1024" />
<glyph unicode="&#x20;" horiz-adv-x="512" d="" />
<glyph unicode="&#xe900;" glyph-name="comment" d="M170.667 29.867c-4.267 0-8.533 0-12.8 4.267-12.8 4.267-21.333 17.067-21.333 29.867v554.667c0 42.667 17.067 81.067 46.933 115.2s72.533 46.933 115.2 46.933h426.667c42.667 0 81.067-17.067 115.2-46.933s46.933-72.533 46.933-115.2v-256c0-42.667-17.067-85.333-46.933-115.2s-72.533-46.933-115.2-46.933h-371.2l-162.133-162.133c-4.267-4.267-12.8-8.533-21.333-8.533zM298.667 716.8c-25.6 0-51.2-12.8-68.267-29.867s-25.6-42.667-25.6-68.267v-477.867l115.2 115.2c4.267 4.267 12.8 8.533 21.333 8.533h384c25.6 0 51.2 8.533 68.267 29.867 17.067 17.067 29.867 42.667 29.867 68.267v256c0 25.6-8.533 51.2-29.867 68.267-17.067 17.067-42.667 29.867-68.267 29.867h-426.667zM682.667 546.133h-341.333c-17.067 0-29.867 12.8-29.867 29.867s12.8 34.133 29.867 34.133h341.333c17.067 0 34.133-12.8 34.133-34.133s-17.067-29.867-34.133-29.867zM597.333 371.2h-256c-17.067 0-34.133 12.8-34.133 34.133s12.8 34.133 34.133 34.133h256c17.067 0 34.133-12.8 34.133-34.133s-17.067-34.133-34.133-34.133z" />
<glyph unicode="&#xe901;" glyph-name="credit-card" horiz-adv-x="1252" d="M1099.856 911.639c54.261 0 98.697-42.919 103.009-97.369l0.341-8.688v-715.174c0-55.575-41.728-101.274-94.868-105.705l-8.482-0.353h-948.147c-54.257 0-98.697 42.917-103.006 97.371l-0.342 8.687v715.174c0 55.576 41.727 101.274 94.867 105.705l8.481 0.352h948.147zM1122.879 504.485h-994.247l0.006-414.077c0-11.566 8.005-21.248 18.458-23.489l4.613-0.484h948.147c11.042 0 20.423 8.232 22.602 19.149l0.472 4.824-0.051 414.077zM412.45 261.478c16.024 0 29.317-12.021 31.815-27.602l0.422-5.308v-16.259c0-16.259-11.69-29.912-27.007-32.478l-5.229-0.432h-142.222c-16.024 0-29.317 12.021-31.815 27.602l-0.422 5.308v16.259c0 16.259 11.691 29.912 27.008 32.478l5.229 0.432h142.222zM791.711 261.478c16.020 0 29.315-12.021 31.812-27.602l0.421-5.308v-16.259c0-16.259-11.691-29.912-27.005-32.478l-5.228-0.432h-268.644c-16.024 0-29.317 12.021-31.815 27.602l-0.422 5.308v16.259c0 16.259 11.69 29.912 27.007 32.478l5.229 0.432h268.644zM1099.856 829.557h-948.147c-11.038 0-20.424-8.235-22.597-19.149l-0.474-4.825-0.006-88.958h994.247l0.051 88.958c0 11.567-8.004 21.247-18.46 23.487l-4.614 0.488z" />
<glyph unicode="&#xe902;" glyph-name="heart" horiz-adv-x="1138" d="M568.889-52.622c-11.378 0-22.756 5.689-28.444 11.378l-426.667 426.667c-34.133 34.133-56.889 68.267-73.956 113.778-17.067 39.822-28.444 85.333-22.756 130.844 0 45.511 11.378 91.022 28.444 130.844s45.511 79.644 79.644 108.089c34.133 28.444 73.956 51.2 119.467 68.267 39.822 5.689 85.333 11.378 130.844 5.689s91.022-17.067 130.844-39.822c22.756-17.067 45.511-28.444 62.578-51.2 17.067 17.067 39.822 34.133 68.267 51.2 39.822 22.756 79.644 34.133 125.156 39.822s91.022 0 130.844-11.378c45.511-11.378 79.644-34.133 113.778-68.267 34.133-28.444 62.578-68.267 79.644-108.089s28.444-85.333 28.444-130.844c0-45.511-5.689-91.022-22.756-130.844s-39.822-79.644-73.956-113.778c0 0 0 0-5.689-5.689l-420.978-420.978c0 0-11.378-5.689-22.756-5.689zM341.333 863.289c-22.756 0-51.2-5.689-73.956-11.378-28.444-11.378-62.578-28.444-85.333-51.2s-45.511-51.2-56.889-79.644c-17.067-28.444-22.756-62.578-22.756-96.711s5.689-68.267 17.067-96.711c11.378-28.444 28.444-56.889 56.889-79.644l398.222-392.533 398.222 392.533c-5.689 0-5.689 0-5.689 0 22.756 22.756 39.822 51.2 51.2 79.644s17.067 62.578 17.067 96.711c0 34.133-11.378 68.267-22.756 96.711-17.067 28.444-34.133 56.889-56.889 79.644s-56.889 39.822-85.333 51.2c-34.133 11.378-62.578 11.378-96.711 11.378-34.133-11.378-68.267-17.067-96.711-34.133s-56.889-39.822-73.956-62.578c-5.689-11.378-22.756-17.067-34.133-17.067 0 0 0 0 0 0-11.378 0-28.444 5.689-34.133 17.067-17.067 22.756-45.511 45.511-73.956 62.578s-62.578 28.444-91.022 28.444c-11.378 0-22.756 5.689-28.444 5.689z" />
<glyph unicode="&#xe903;" glyph-name="play" horiz-adv-x="889" d="M110.484 849.516l673.684-404.211-673.684-404.211v808.421zM110.484-61.305c-16.168 0-35.032 5.389-51.2 13.474-32.337 18.863-51.2 51.2-51.2 88.926v808.421c0 37.726 18.863 70.063 51.2 88.926s70.063 16.168 102.4 0l673.684-404.211c29.642-18.863 48.505-51.2 48.505-86.232s-18.863-67.368-48.505-86.232l-673.684-404.211c-16.168-13.474-32.337-18.863-51.2-18.863zM210.189 671.663v-452.716l377.263 226.358-377.263 226.358z" />
<glyph unicode="&#xe904;" glyph-name="menu" d="M854.309 673.28h-684.617c-17.554 0-32.183 14.629-32.183 32.183s14.629 32.183 32.183 32.183h681.691c17.554 0 32.183-14.629 32.183-32.183s-11.703-32.183-29.257-32.183zM854.309 415.817h-684.617c-17.554 0-32.183 14.629-32.183 32.183s14.629 32.183 32.183 32.183h681.691c17.554 0 32.183-14.629 32.183-32.183s-11.703-32.183-29.257-32.183zM854.309 161.28h-684.617c-17.554 0-32.183 14.629-32.183 32.183s14.629 32.183 32.183 32.183h681.691c17.554 0 32.183-14.629 32.183-32.183s-11.703-32.183-29.257-32.183z" />
<glyph unicode="&#xe905;" glyph-name="search" d="M425.6 192c-188.8 0-342.4 153.6-342.4 342.4s153.6 342.4 342.4 342.4 342.4-153.6 342.4-342.4c0-188.8-153.6-342.4-342.4-342.4zM425.6 787.2c-140.8 0-256-115.2-256-256s115.2-256 256-256 256 115.2 256 256c0 144-115.2 256-256 256zM896 19.2c-12.8 0-22.4 3.2-32 12.8l-256 256c-16 16-16 44.8 0 60.8s44.8 16 60.8 0l256-256c16-16 16-44.8 0-60.8-6.4-6.4-16-12.8-28.8-12.8z" />
<glyph unicode="&#xe906;" glyph-name="tv" d="M812.8 73.6h-598.4c-64 0-118.4 54.4-118.4 118.4v384c0 64 54.4 118.4 118.4 118.4h595.2c64 0 118.4-51.2 121.6-115.2v-387.2c0-64-54.4-118.4-118.4-118.4zM214.4 630.4c-32 0-54.4-22.4-54.4-54.4v-384c0-32 22.4-54.4 54.4-54.4h598.4c32 0 54.4 22.4 54.4 54.4v384c-3.2 28.8-28.8 54.4-57.6 54.4h-595.2zM512 630.4c-9.6 0-16 3.2-22.4 9.6l-169.6 169.6c-12.8 12.8-12.8 32 0 44.8s32 12.8 44.8 0l147.2-147.2 147.2 147.2c12.8 12.8 32 12.8 44.8 0s12.8-32 0-44.8l-169.6-169.6c-6.4-6.4-12.8-9.6-22.4-9.6z" />
<glyph unicode="&#xe907;" glyph-name="chevron-left" horiz-adv-x="512" d="M448-34.133c-8.533 0-17.067 4.267-21.333 8.533l-396.8 405.333c-29.867 29.867-29.867 72.533 0 102.4l392.533 435.2c12.8 12.8 34.133 12.8 46.933 0s12.8-34.133 0-46.933l-396.8-426.667c-4.267-4.267-4.267-8.533 0-12.8l396.8-409.6c12.8-12.8 12.8-34.133 0-46.933-4.267-4.267-12.8-8.533-21.333-8.533z" />
<glyph unicode="&#xe908;" glyph-name="chevron-right" horiz-adv-x="512" d="M64-34.133c-8.533 0-17.067 4.267-21.333 8.533-12.8 12.8-12.8 34.133 0 46.933l396.8 405.333c4.267 4.267 4.267 8.533 0 12.8l-401.067 435.2c-8.533 12.8-8.533 34.133 4.267 46.933s34.133 12.8 46.933 0l401.067-430.933c25.6-29.867 25.6-72.533 0-102.4l-405.333-409.6c-4.267-8.533-12.8-12.8-21.333-12.8z" />
<glyph unicode="&#xe909;" horiz-adv-x="832" d="M83.2 563.2h665.6c44.8 0 83.2-38.4 83.2-83.2v-416c0-44.8-38.4-83.2-83.2-83.2h-665.6c-44.8 0-83.2 38.4-83.2 83.2v416c0 44.8 38.4 83.2 83.2 83.2z" />
<glyph unicode="&#xe90a;" horiz-adv-x="832" d="M697.6 563.2h-64c0 204.8-115.2 300.8-217.6 300.8s-217.6-96-217.6-300.8h-64c0 249.6 147.2 364.8 281.6 364.8s281.6-115.2 281.6-364.8z" />
<glyph unicode="&#xe90b;" horiz-adv-x="832" d="M275.2 339.2c-12.8 12.8-32 12.8-44.8 0s-12.8-32 0-44.8l44.8 44.8zM416 147.2l-25.6-25.6 25.6-25.6 25.6 25.6-25.6 25.6zM691.2 371.2c12.8 12.8 12.8 32 0 44.8s-32 12.8-44.8 0l44.8-44.8zM224 288l166.4-166.4 44.8 44.8-160 172.8-51.2-51.2zM441.6 121.6l249.6 249.6-51.2 51.2-249.6-249.6 51.2-51.2z" />
<glyph unicode="&#xe90c;" glyph-name="dropdown" horiz-adv-x="1792" d="M896 12.8c-25.6 0-51.2 12.8-64 25.6l-704 704c-25.6 25.6-25.6 64-12.8 89.6s51.2 51.2 76.8 51.2h1408c38.4 0 64-25.6 76.8-51.2s0-76.8-12.8-89.6l-704-704c-12.8-25.6-38.4-25.6-64-25.6zM409.6 716.8l486.4-499.2 486.4 486.4h-972.8z" />
<glyph unicode="&#xe90d;" glyph-name="chevron-down" horiz-adv-x="2048" d="M998.4-55.467c-34.133 0-76.8 17.067-102.4 42.667l-810.667 802.133c-25.6 25.6-25.6 59.733 0 85.333s59.733 25.6 85.333 0l810.667-793.6c8.533-8.533 17.067-8.533 25.6 0l870.4 802.133c25.6 25.6 68.267 25.6 93.867 0s25.6-68.267 0-93.867l-861.867-802.133c-34.133-25.6-76.8-42.667-110.933-42.667z" />
<glyph unicode="&#xe90e;" glyph-name="heart-outline" d="M512-64c-282.819 0-512 229.181-512 512s229.181 512 512 512c282.819 0 512-229.181 512-512s-229.181-512-512-512zM512 923.429c-263.314 0-475.429-212.114-475.429-475.429s212.114-475.429 475.429-475.429c263.314 0 475.429 212.114 475.429 475.429s-212.114 475.429-475.429 475.429zM512 184.686c-4.876 0-9.752 2.438-12.19 4.876l-182.857 182.857c-14.629 14.629-24.381 29.257-31.695 48.762-7.314 17.067-9.752 36.571-9.752 56.076s4.876 39.010 12.19 56.076c7.314 17.067 19.505 34.133 34.133 46.324s31.695 21.943 51.2 29.257c19.505 4.876 39.010 7.314 56.076 4.876 19.505-2.438 36.571-7.314 53.638-17.067 9.752-4.876 19.505-12.19 29.257-21.943 7.314 7.314 17.067 14.629 29.257 21.943 17.067 9.752 34.133 14.629 53.638 17.067s39.010 0 56.076-4.876c19.505-4.876 34.133-14.629 48.762-29.257 14.629-12.19 26.819-29.257 34.133-46.324s12.19-36.571 12.19-56.076c0-19.505-2.438-39.010-9.752-56.076s-17.067-34.133-31.695-48.762c0 0 0 0-2.438-2.438l-180.419-180.419c0-2.438-4.876-4.876-9.752-4.876zM414.476 577.219c-9.752 0-21.943-2.438-31.695-4.876-14.629-4.876-26.819-12.19-36.571-21.943s-19.505-21.943-24.381-34.133c-7.314-12.19-9.752-26.819-9.752-41.448s2.438-29.257 7.314-41.448c4.876-12.19 12.19-24.381 24.381-34.133l170.667-168.229 170.667 168.229c0 0 0 0 2.438 2.438 9.752 9.752 17.067 21.943 21.943 34.133s7.314 26.819 7.314 41.448c0 14.629-4.876 29.257-9.752 41.448-7.314 12.19-14.629 24.381-24.381 34.133s-24.381 17.067-36.571 21.943c-14.629 4.876-26.819 4.876-41.448 4.876-14.629-2.438-26.819-4.876-41.448-12.19-12.19-7.314-24.381-17.067-31.695-26.819-2.438-4.876-9.752-7.314-14.629-7.314 0 0 0 0 0 0-4.876 0-12.19 2.438-14.629 7.314-9.752 12.19-19.505 21.943-31.695 29.257s-26.819 12.19-41.448 12.19c-7.314-7.314-12.19-4.876-14.629-4.876z" />
<glyph unicode="&#xe90f;" glyph-name="info" d="M512-64c-282.819 0-512 229.181-512 512s229.181 512 512 512c282.819 0 512-229.181 512-512s-229.181-512-512-512zM512 923.429c-263.314 0-475.429-212.114-475.429-475.429s212.114-475.429 475.429-475.429c263.314 0 475.429 212.114 475.429 475.429s-212.114 475.429-475.429 475.429zM536.381 204.19h-53.638v309.638h53.638v-309.638zM480.305 594.286c0 9.752 2.438 14.629 7.314 21.943 4.876 4.876 12.19 9.752 24.381 9.752 9.752 0 17.067-2.438 24.381-9.752 4.876-4.876 7.314-12.19 7.314-21.943s-2.438-14.629-7.314-21.943c-4.876-4.876-12.19-9.752-24.381-9.752-9.752 0-17.067 2.438-24.381 9.752-4.876 7.314-7.314 14.629-7.314 21.943z" />
<glyph unicode="&#xe910;" glyph-name="minus" d="M525.964-54.691c-18.618 0-37.236 13.964-37.236 37.236v907.636c0 18.618 13.964 37.236 37.236 37.236s32.582-18.618 32.582-37.236v-907.636c0-18.618-13.964-37.236-32.582-37.236zM977.455 401.455h-907.636c-18.618 0-37.236 13.964-37.236 37.236s13.964 37.236 37.236 37.236h907.636c18.618 0 37.236-13.964 37.236-37.236s-18.618-37.236-37.236-37.236z" />
<glyph unicode="&#xe911;" glyph-name="plus" horiz-adv-x="1073" d="M999.619 423.619h-950.857c-19.505 0-39.010 14.629-39.010 39.010s19.505 34.133 39.010 34.133h950.857c19.505 0 39.010-14.629 39.010-39.010s-19.505-34.133-39.010-34.133z" />
<glyph unicode="&#xe917;" d="M739.65 751.815h-462.069c-102.4 0-185.336-79.55-185.336-178.565v-267.425c0-98.169 82.936-178.565 185.336-178.565h462.069c102.4 0 185.336 79.55 185.336 178.565v267.425c0 99.015-82.936 178.565-185.336 178.565z" />
<glyph unicode="&#xe918;" d="M423.987 578.327l211.57-126.942-211.57-126.942v253.884z" />
<glyph unicode="&#xe919;" d="M423.987 292.284c-5.078 0-11.002 1.693-16.079 4.231-10.155 5.924-16.079 16.079-16.079 27.927v253.884c0 11.848 5.924 22.003 16.079 27.927s22.003 5.078 32.159 0l211.57-126.942c9.309-5.924 15.233-16.079 15.233-27.081s-5.924-21.157-15.233-27.081l-211.57-126.942c-5.078-4.231-10.155-5.924-16.079-5.924zM455.299 522.473v-142.175l118.479 71.088-118.479 71.088z" />
</font>
</defs>
</svg>
